<svg width="150" height="54" viewBox="0 0 150 54" fill="none" xmlns="http://www.w3.org/2000/svg">
<path d="M65.8332 0.0102299C71.9929 0.00255765 78.1499 0.0179019 84.3069 0C87.4044 5.01253 90.502 10.0276 93.5642 15.0606C90.4802 20.0527 87.399 25.0499 84.3368 30.0547C78.1771 30.0828 72.0201 30.0419 65.8604 30.0726C62.7357 25.0882 59.7088 20.0501 56.5923 15.0606C59.6436 10.0302 62.7574 5.03043 65.8332 0.0102299ZM66.4282 0.976932C66.8249 1.6214 67.2271 2.26587 67.6401 2.90266C72.5635 2.84129 77.082 3.00752 82 2.90266C82.6168 2.42954 83.2907 1.59582 83.7119 0.974374C77.9489 0.974374 72.1886 0.971817 66.4282 0.976932ZM62.5237 15.0529C64.6268 18.4313 66.7027 21.8224 68.8003 25.2033C72.9847 25.2033 77.169 25.2007 81.3561 25.2033C83.4483 21.8198 85.5296 18.4313 87.6327 15.0529C85.5487 11.6311 83.451 8.21697 81.3453 4.80794C77.1663 4.81305 72.9847 4.80794 68.8057 4.80794C66.7081 8.22208 64.5996 11.6286 62.5237 15.0529ZM67.5749 27.2058C67.2026 27.8426 66.8168 28.4742 66.4337 29.1059C72.1967 29.1034 77.9597 29.1008 83.7227 29.1034C83.3315 28.4666 82.9402 27.8298 82.5489 27.1904C77.5576 27.1955 72.5662 27.1597 67.5749 27.2058Z" fill="#EAA159"/>
<path d="M45.9194 15.0504C48.6882 10.5519 51.4189 6.02782 54.2474 1.56002C55.1984 3.17886 56.2255 4.75423 57.1819 6.36796C55.3831 9.25272 53.6143 12.1503 51.8455 15.0504C53.6333 17.9428 55.4103 20.8404 57.1792 23.7456C56.1711 25.3209 55.2364 26.9398 54.1985 28.4998C51.4379 24.0167 48.6909 19.5258 45.9194 15.0504Z" fill="#EAA159"/>
<path d="M92.9691 6.35261C93.95 4.74144 94.9472 3.1405 95.9417 1.53445C98.6995 6.04828 101.495 10.5417 104.245 15.058C101.457 19.5361 98.7158 24.0397 95.9389 28.5228C94.939 26.9372 93.9745 25.3337 92.9718 23.7507C94.738 20.8429 96.5177 17.9428 98.3083 15.0504C96.5367 12.1452 94.7543 9.2476 92.9691 6.35261Z" fill="#EAA159"/>
<path d="M80.4356 39.9528C81.3594 38.5948 83.2506 38.0808 84.8808 38.3084C85.1716 39.1753 85.1498 40.165 84.9162 41.0422C84.4379 41.2136 83.9081 41.2596 83.4571 41.4949C83.1364 41.7788 83.0821 42.2263 82.8973 42.5869C83.5766 42.656 84.3157 42.5281 84.9515 42.8196C85.1199 43.6917 85.1444 44.6149 84.9325 45.4845C84.3347 45.7325 83.65 45.6098 83.0169 45.6507C82.968 48.0649 83.1364 50.4893 82.9191 52.8984C81.9328 52.9163 80.941 52.9802 79.9547 52.8882C79.6042 52.7015 79.7319 52.2693 79.6857 51.9624C79.6884 49.8628 79.6911 47.7657 79.6911 45.666C79.2265 45.6328 78.7646 45.5944 78.3027 45.5484C78.2483 44.6098 78.2538 43.6713 78.2918 42.7352C78.7537 42.679 79.2156 42.6304 79.6803 42.5869C79.7808 41.6816 79.8786 40.7277 80.4356 39.9528Z" fill="white"/>
<path d="M68.3145 38.7175C69.2927 38.3928 70.4366 38.4874 71.4501 38.6587C71.5995 39.5052 71.5805 40.3747 71.4827 41.2264C70.5208 41.6074 69.3878 41.4105 68.3716 41.3389C68.1162 40.4924 68.1596 39.5794 68.3145 38.7175Z" fill="white"/>
<path d="M86.2014 39.6842C86.2666 39.2955 86.0791 38.6715 86.6524 38.5743C87.5925 38.4823 88.5435 38.5411 89.4864 38.5897C89.5407 39.4669 89.6059 40.3543 89.4864 41.2289C88.5544 41.6023 87.454 41.3926 86.4622 41.3721C86.0927 40.8888 86.2285 40.2443 86.2014 39.6842Z" fill="white"/>
<path d="M3.29646 43.5025C4.07084 42.7787 5.11694 42.2238 6.24998 42.413C7.11946 42.4463 7.79874 42.9935 8.39107 43.5357C9.51324 42.5434 11.1734 42.078 12.6542 42.5895C13.8688 42.9603 14.5644 44.1495 14.6622 45.2927C14.8307 47.2567 14.6975 49.2285 14.7491 51.1952C14.722 51.7476 14.8252 52.3409 14.5671 52.8575C13.79 52.9675 12.9993 52.9342 12.2168 52.924C11.9396 52.924 11.4016 52.9086 11.4533 52.5199C11.3663 50.3717 11.4804 48.2183 11.4044 46.0701C11.3636 44.8528 9.14643 44.9653 9.06492 46.1136C8.95352 48.2311 9.12469 50.3589 8.99427 52.4764C8.95895 52.5736 8.89102 52.7705 8.85842 52.8677C7.86395 52.9802 6.85861 52.9086 5.85871 52.9214C5.51907 50.5839 5.86958 48.2081 5.66579 45.863C5.35604 44.8528 3.45134 45.0548 3.35896 46.1034C3.27473 47.9703 3.35624 49.8423 3.3345 51.7118C3.28016 52.0826 3.41058 52.5455 3.13072 52.8498C2.27483 52.9879 1.39448 52.9368 0.530432 52.9061C0.125581 52.9316 -0.0646195 52.589 0.0196113 52.2514C0.0304798 49.0827 -0.040165 45.9115 0.0603686 42.7455C1.10374 42.592 2.16614 42.6023 3.21223 42.7225C3.23397 42.9168 3.27473 43.3081 3.29646 43.5025Z" fill="white"/>
<path d="M18.602 43.0984C20.6046 41.9501 23.6151 42.1317 25.1177 43.9423C25.9872 44.9755 25.9763 46.3591 25.96 47.6122C25.9193 49.3743 26.0334 51.1415 25.8812 52.901C24.9112 52.9112 23.9385 52.9828 22.9739 52.8728C22.8734 52.6657 22.781 52.4534 22.6995 52.2411C21.254 53.5301 18.7569 53.5838 17.2761 52.3255C15.798 50.9701 16.0262 48.2797 17.8793 47.3156C19.4145 46.5074 21.3409 46.7887 22.8245 47.5713C22.7457 46.7529 22.9277 45.395 21.743 45.2466C20.8382 44.9934 20.2405 45.6737 19.6998 46.2236C18.7352 46.3514 17.7489 46.2875 16.7897 46.1366C16.912 44.9449 17.4663 43.7275 18.602 43.0984ZM19.9932 50.7885C20.8002 51.3051 21.7947 51.0034 22.6179 50.6914C22.675 50.2847 22.8951 49.7988 22.5337 49.4561C22.0093 48.9165 21.1072 48.9549 20.4062 49.0904C19.5884 49.2183 19.2895 50.3435 19.9932 50.7885Z" fill="white"/>
<path d="M29.5575 42.9552C31.5844 41.9961 34.5515 42.1291 35.9373 44.0063C36.2851 44.5715 36.7334 45.3387 36.3394 45.9653C35.4264 46.0727 34.5053 46.0087 33.587 46.0036C33.1767 45.2645 32.2338 44.6968 31.3942 45.2313C30.8399 45.4666 31.0111 46.2056 31.56 46.3258C32.8887 46.8194 34.4428 46.7529 35.6384 47.5662C36.91 48.4076 37.0431 50.1696 36.3829 51.3998C35.671 52.6631 34.0679 53.149 32.6387 53.2309C31.0709 53.3101 29.283 52.9265 28.3185 51.6606C27.8402 51.0852 27.7506 50.3435 27.6854 49.6428C28.6635 49.5968 29.6444 49.5993 30.6226 49.6198C31.1062 50.4484 32.1605 50.855 33.0924 50.4075C33.6793 50.2361 33.5652 49.4587 33.0191 49.3103C31.6252 48.7989 29.9732 48.873 28.7641 47.9447C27.1148 46.6276 27.6093 43.7966 29.5575 42.9552Z" fill="white"/>
<path d="M40.013 43.0728C41.8932 42.0601 44.5696 42.078 46.2026 43.5255C46.8954 44.1648 47.2269 45.0957 47.1291 46.0011C46.2053 46.0062 45.2733 46.0778 44.3549 45.9729C43.8414 45.5893 43.4393 44.8732 42.6649 45.0548C42.0291 44.9858 41.3117 45.7735 41.9883 46.2005C43.3931 46.8808 45.1782 46.6737 46.4444 47.6608C48.0529 48.9421 47.6454 51.7169 45.7733 52.6017C44.2163 53.3741 42.2845 53.4431 40.6488 52.8524C39.3038 52.392 38.2577 51.1082 38.4017 49.7272C39.3337 49.4791 40.3254 49.6454 41.2819 49.6147C41.7438 50.3129 42.5643 50.809 43.461 50.5098C44.124 50.4868 44.4636 49.6454 43.787 49.3589C42.3551 48.7759 40.6134 48.8986 39.3772 47.8935C37.8637 46.6225 38.255 43.9884 40.013 43.0728Z" fill="white"/>
<path d="M51.9031 42.7429C53.7833 42.0499 56.2179 42.3107 57.59 43.8017C58.6035 44.9218 58.5655 46.4793 58.5682 47.868C58.5247 49.5431 58.6579 51.2258 58.465 52.8984C57.4759 52.9316 56.4869 52.9291 55.4978 52.9086C55.4489 52.7501 55.3484 52.4329 55.2968 52.2718C53.8947 53.392 51.6966 53.6017 50.1777 52.571C48.4034 51.3895 48.4551 48.4792 50.3136 47.3974C51.8352 46.4921 53.8323 46.7529 55.3511 47.5304C55.237 46.8245 55.506 45.8809 54.7996 45.3873C54.2317 45.1673 53.4247 45.0778 52.9791 45.5586C52.6422 45.8092 52.4302 46.3131 51.9276 46.267C51.1151 46.2568 50.2348 46.4205 49.4713 46.0931C49.3544 44.6201 50.4739 43.2518 51.9031 42.7429ZM52.5552 49.2899C51.971 49.6888 52.0851 50.6581 52.7862 50.8883C53.6556 51.277 55.3701 51.1005 55.3158 49.9292C55.0957 48.8142 53.3921 48.8321 52.5552 49.2899Z" fill="white"/>
<path d="M63.9046 44.3183C64.3448 43.2646 65.3664 42.4667 66.6109 42.4693C66.9831 43.528 66.7087 44.6865 66.7739 45.7862C65.7794 45.9346 64.4915 46.0701 64.1356 47.134C63.6873 49.0214 64.0677 50.9803 63.8883 52.8933C62.845 52.9137 61.7934 52.9956 60.7582 52.8524C60.6278 52.2232 60.674 51.5762 60.6658 50.942C60.6957 48.2132 60.6359 45.4845 60.6984 42.7583C61.7581 42.5767 62.8422 42.6048 63.9101 42.7097C63.9209 43.2442 63.9209 43.7812 63.9046 44.3183Z" fill="white"/>
<path d="M95.2548 43.4922C96.4232 42.3363 98.4257 42.0013 99.8902 42.8427C101.037 43.5204 101.523 44.84 101.588 46.0624C101.689 47.7733 101.602 49.4894 101.64 51.2028C101.613 51.7476 101.713 52.3255 101.463 52.837C100.458 53.0365 99.412 52.8958 98.3931 52.8933C98.154 50.6632 98.4366 48.4127 98.2436 46.1826C97.9583 44.7914 95.4477 44.95 95.3119 46.3514C95.1054 48.5303 95.4043 50.7323 95.1516 52.9112C94.1191 52.9291 93.0865 52.9291 92.054 52.9163C91.7497 50.3998 91.997 47.8526 91.9155 45.3208C91.9807 44.4641 91.728 43.528 92.1274 42.725C93.1191 42.5383 94.1381 42.6329 95.138 42.702C95.1679 42.8989 95.2249 43.2928 95.2548 43.4922Z" fill="white"/>
<path d="M104.023 44.7223C104.876 42.7531 107.46 42.0396 109.522 42.5076C111.232 42.7787 112.644 44.1776 112.788 45.8144C112.922 47.6864 112.799 49.5661 112.851 51.4432C112.805 51.9112 112.941 52.4406 112.691 52.8703C111.753 52.97 110.799 52.9674 109.865 52.8805C109.786 52.7296 109.631 52.4227 109.552 52.2718C108.156 53.4917 105.843 53.5608 104.338 52.4867C102.705 51.2233 102.819 48.4357 104.651 47.3769C106.186 46.4946 108.188 46.7504 109.699 47.556C109.609 46.7606 109.816 45.4819 108.707 45.262C107.811 44.9781 107.164 45.62 106.637 46.1903C105.762 46.3668 104.816 46.3105 103.931 46.198C103.515 45.7683 103.884 45.1904 104.023 44.7223ZM106.903 49.2771C106.161 49.7067 106.506 50.8883 107.349 50.9803C108.259 51.277 109.963 50.8755 109.596 49.694C109.074 48.8577 107.707 48.85 106.903 49.2771Z" fill="white"/>
<path d="M118.35 43.4743C119.723 41.991 122.605 41.9629 123.809 43.6508C124.945 45.1801 124.6 47.1493 124.66 48.9037C124.63 50.2412 124.765 51.5916 124.535 52.9189C123.497 52.9291 122.459 52.9342 121.423 52.901C121.163 50.6428 121.489 48.359 121.25 46.1034C120.883 44.8298 118.6 44.9627 118.364 46.2517C118.062 48.4408 118.532 50.6965 118.128 52.8703C117.125 52.9623 116.101 52.9905 115.101 52.8524C114.824 52.0724 114.973 51.231 114.94 50.4254C114.989 47.8577 114.843 45.285 115.027 42.7225C116.046 42.6381 117.114 42.4897 118.114 42.771C118.174 42.945 118.291 43.2979 118.35 43.4743Z" fill="white"/>
<path d="M130.501 42.5434C133.379 41.7737 136.938 43.4309 137.482 46.3156C136.859 46.8297 135.808 46.5356 135.02 46.6046C133.987 46.7248 133.55 45.5689 132.58 45.4768C131.042 45.1136 129.363 46.3463 129.526 47.868C129.444 49.3692 131.134 50.5072 132.637 50.1287C133.409 50.0239 133.819 49.2848 134.515 49.0546C135.417 48.9856 136.332 48.9753 137.234 49.0776C137.302 49.1595 137.435 49.318 137.501 49.3973C137.18 50.5507 136.422 51.5967 135.373 52.2744C133.273 53.6477 130.194 53.5684 128.243 51.9828C126.415 50.5942 125.765 48.0956 126.515 46.0292C127.086 44.3208 128.651 42.9552 130.501 42.5434Z" fill="white"/>
<path d="M139.786 44.395C141.563 42.2391 145.147 41.7174 147.554 43.2237C149.394 44.3797 150.287 46.6251 149.918 48.648C149.931 49.006 149.467 49.0239 149.201 49.0265C146.785 49.0469 144.37 49.0009 141.954 49.0444C142.372 49.8269 143.014 50.6044 144.011 50.7093C145.013 50.9599 145.888 50.3614 146.769 50.0239C147.636 49.942 148.516 49.9267 149.385 50.0136C149.72 50.4535 149.201 50.8934 148.989 51.277C146.736 54.218 141.283 53.7781 139.384 50.6914C138.177 48.7707 138.316 46.1596 139.786 44.395ZM141.965 46.7069C143.573 46.7274 145.185 46.7274 146.793 46.7043C146.402 45.9653 145.812 45.1827 144.848 45.1443C143.606 44.9116 142.397 45.6098 141.965 46.7069Z" fill="white"/>
<path d="M68.2928 42.725C69.3552 42.592 70.4312 42.5971 71.4936 42.725C71.5941 45.5433 71.5044 48.3641 71.5452 51.1849C71.5262 51.7476 71.605 52.3383 71.3794 52.8754C70.4312 52.9623 69.472 52.9598 68.5237 52.8907C68.0972 52.6554 68.2602 52.0954 68.2086 51.7143C68.2602 48.7196 68.1135 45.7172 68.2928 42.725Z" fill="white"/>
<path d="M86.4051 42.7276C87.3942 42.569 88.4239 42.5639 89.4103 42.7455C89.6657 43.6636 89.5026 44.6252 89.5407 45.5637C89.4972 48.0112 89.6331 50.4612 89.4646 52.9035C88.4267 52.9316 87.386 52.9291 86.3481 52.9163C86.0465 50.566 86.2883 48.1825 86.2122 45.8195C86.2829 44.794 86.0166 43.7096 86.4051 42.7276Z" fill="white"/>
</svg>
